<?xml version="1.0" encoding="iso-8859-1"?>
<!-- Generator: Adobe Illustrator 17.0.0, SVG Export Plug-In . SVG Version: 6.00 Build 0)  -->
<!DOCTYPE svg PUBLIC "-//W3C//DTD SVG 1.1//EN" "http://www.w3.org/Graphics/SVG/1.1/DTD/svg11.dtd">
<svg version="1.1" id="Livello_1" xmlns="http://www.w3.org/2000/svg" xmlns:xlink="http://www.w3.org/1999/xlink" x="0px" y="0px"
	 preserveAspectRatio="xMidYMid meet" viewBox="0 0 841.89 595.28" style="enable-background:new 0 0 841.89 595.28;"
	 xml:space="preserve">
<g>
	<g>
		<path d="M154.821,250.838c0.771-0.268,1.62-0.266,2.416-0.447c0.12-0.124,0.68-0.037,0.809,0.023
			c0.208,0.097,0.257,0.219,0.413,0.357c0.085,0.075,0.003,0.274,0.069,0.338c0.093,0.091,0.256,0.057,0.362,0.137
			c1.34,1.017,2.521,1.878,3.659,3.162c0.192,0.217,0.388,0.439,0.499,0.707c0.424,1.021-0.348,1.997-0.382,3.007
			c-0.035,1.057,0.553,2.038,1.026,2.942c0.343,0.656,0.59,1.693,1.387,1.934c0.232,0.07,0.479,0.058,0.721,0.046
			c1.443-0.074,2.887-0.148,4.322-0.315c0.693-0.081,1.409-0.193,1.992-0.576c0.787-0.517,1.262-1.443,1.797-2.193
			c0.6-0.842,1.109-1.598,1.124-2.661c0.018-1.294,0.014-2.609,0.003-3.906c-0.011-1.326-0.187-2.698-0.88-3.829
			c-0.146-0.238-0.315-0.466-0.404-0.731c-0.085-0.254-0.091-0.526-0.106-0.793c-0.221-4.091-2.628-7.399-5.731-9.888
			c-1.449-1.162-3.235-1.523-5.054-1.341c-0.896,0.089-1.777,0.295-2.644,0.533c-0.821,0.225-1.57,0.643-2.425,0.75
			c-0.115,0.014-0.238,0.023-0.342-0.028c-0.162-0.079-0.226-0.271-0.301-0.435c-0.666-1.445-4.759,0.673-5.698,1.023
			c-1.979,0.737-3.866,1.718-5.611,2.906c-2.211,1.505-4.198,3.343-5.857,5.441c-3.072,3.884-3.784,8.455-5.045,13.104
			c-0.535,1.971-0.985,3.615-0.693,5.694c0.231,1.646,0.687,3.258,0.848,4.913c0.326,3.347-0.641,7.239,1.444,10.183
			c1.055,1.49,2.017,3.089,3.158,4.53c0.574,0.725,1.166,1.395,1.922,1.916c0.83,0.571,1.65,1.167,2.165,2.057
			c0.347,0.6,0.533,1.292,0.955,1.842c0.506,0.66,1.298,1.048,1.828,1.689c0.674,0.815,0.942,2.042,1.909,2.47
			c0.543,0.241,1.205,0.163,1.706,0.484c0.309,0.198,0.511,0.522,0.718,0.825c1.088,1.599,2.554,2.647,4.036,3.839
			c1.607,1.291,2.895,2.835,3.953,4.606c2.478,4.148,3.471,9.029,4.404,13.711c0.029,0.146,0.058,0.293,0.087,0.439
			c0.007,1.779-0.275,3.265-1.273,4.739c-1.088,1.607-2.403,3.044-3.711,4.472c-0.294,0.322-0.598,0.651-0.99,0.844
			c-0.26,0.128-0.547,0.191-0.832,0.242c-2.328,0.421-4.672,0.194-6.803-0.861c-0.456-0.226-0.924-0.46-1.266-0.837
			c-0.587-0.647-0.441-1.796-0.584-2.618c-0.209-1.202-0.537-2.378-0.95-3.526c-0.619-1.72-1.319-3.485-1.323-5.341
			c0,0.002-0.003-1.288-1.012-2.316c-0.815-0.83-2.556-0.725-3.597-0.673c-1.471,0.074-2.737,0.144-3.903,1.15
			c-0.819,0.706-1.845,1.725-1.947,2.853c-0.033,0.368-0.009,0.812-0.315,1.019c-0.679,0.459-1.32,0.19-1.544,1.253
			c-0.208,0.985,0.213,2.113,0.317,3.095c0.142,1.345,1.026,2.451,1.242,3.774c0.07,0.425,0.016,0.859,0.002,1.29
			c-0.086,2.6,1.555,4.316,2.427,6.605c0.702,1.843,1.798,3.491,3.253,4.825c1.411,1.293,3.138,2.739,5.16,2.679
			c0.777-0.023,1.595-0.23,2.307,0.085c0.617,0.273,1.055,0.907,1.715,1.049c0.446,0.096,0.902-0.053,1.348-0.145
			c0.838-0.173,1.717-0.141,2.54,0.09c0.62,0.174,1.223,0.463,1.867,0.463c0.496,0.001,0.974-0.171,1.445-0.329
			c2.851-0.962,5.867-1.189,8.617-2.43c2.407-1.086,4.458-2.771,5.948-4.955c2.562-3.754,3.883-8.201,3.859-12.743
			c-0.025-4.822,1.095-11.154-1.388-17.226c-1.055-2.578-1.454-5.338-2.461-7.945c-0.794-2.056-1.914-4.019-3.513-5.536
			c-1.464-1.388-3.281-2.361-4.741-3.752c-1.404-1.338-2.423-3.004-3.696-4.456c-1.339-1.527-3.358-2.22-4.584-3.806
			c-0.756-0.978-1.43-2.028-2.255-2.951c-0.702-0.784-1.255-1.819-1.915-2.659c-1.064-1.354-1.935-2.851-2.647-4.417
			c-0.346-0.762-0.655-1.54-0.933-2.329c-0.193-0.548-0.734-1.532-0.551-2.122c0.139-0.448,0.695-0.548,0.954-0.908
			c0.338-0.469,0.386-1.041,0.36-1.601c-0.053-1.153-0.591-2.288-0.463-3.45c0.342-3.115,2.751-5.501,4.964-7.488
			c0.625-0.562,1.288-1.135,2.065-1.478C154.656,250.898,154.738,250.867,154.821,250.838z"/>
		<path d="M241.852,303.595c-0.046-0.169-0.102-0.335-0.15-0.504c-0.524-1.867-0.1-4.201-0.024-6.119
			c0.084-2.133,0.176-4.266,0.177-6.402c0.001-4.5-0.384-8.996-0.425-13.497c-0.008-0.852-0.016-1.707,0.076-2.554
			c0.23-2.119,0.533-3.905,0.212-6.042c-0.32-2.129-0.854-4.304-0.481-6.463c0.183-1.058,0.562-2.125,0.351-3.178
			c-0.053-0.261-0.141-0.517-0.157-0.783c-0.014-0.231,0.027-0.462,0.063-0.691c0.425-2.706,0.115-5.446-0.09-8.157
			c-0.198-2.629,0.264-5.429-0.348-7.999c-0.54-2.268-1.971-4.302-2.174-6.624c-0.094-1.074-0.103-1.909-0.812-2.771
			c-2.317-2.815-5.183-5.173-8.379-6.926c-1.51-0.828-3.333-1.852-5.046-2.159c-1.22-0.218-2.687-0.097-3.845,0.355
			c-1.262,0.493-2.349,1.372-3.671,1.723c-1.177,0.313-2.448,0.17-3.605,0.55c-1.751,0.576-2.894,2.209-3.985,3.695
			c-3.996,5.447-9.169,11.319-9.652,18.405c-0.176,2.583,0.406,5.224-0.236,7.77c-0.241,0.955-0.656,1.932-0.423,2.889
			c0.125,0.511,0.425,0.959,0.622,1.447c0.655,1.621,0.102,3.39-0.021,5.057c-0.131,1.778-0.052,3.567,0.576,5.254
			c0.071,0.191,0.148,0.391,0.115,0.592c-0.027,0.163-0.125,0.304-0.212,0.445c-0.67,1.079-0.614,2.161-0.632,3.372
			c-0.021,1.439-0.231,2.909-0.326,4.356c-0.112,1.69-0.141,3.39,0.023,5.078c0.072,0.743,0.155,1.514,0.309,2.245
			c0.137,0.646,0.628,1.474,0.274,2.121c-0.121,0.221-0.329,0.382-0.467,0.592c-0.526,0.797,0.105,1.816,0.291,2.752
			c0.241,1.208-0.303,2.428-0.346,3.659c-0.047,1.335,0.498,2.636,0.467,3.972c-0.029,1.249-0.566,2.447-0.512,3.701
			c0.054,1.239,0.58,2.414,0.602,3.663c0.027,1.551-0.037,3.102-0.107,4.652c-0.138,3.035-0.319,6.089,0.051,9.116
			c0.506,4.14,1.943,8.164,4.382,11.564c1.428,1.991,3.177,3.751,5.146,5.209c0.819,0.609,1.435,1.336,2.365,1.83
			c1.034,0.55,2.164,0.905,3.31,1.13c2.715,0.533,5.515,0.26,8.266,0.196c0.531-0.012,1.077-0.023,1.578,0.153
			c1.153,0.405,1.776,0.359,2.782-0.388c0.856-0.635,1.515-1.504,2.38-2.125c2.31-1.66,5.02-3.161,6.084-5.8
			c0.316-0.785,0.469-1.642,0.913-2.362c0.394-0.64,0.989-1.127,1.494-1.684c0.885-0.976,0.696-1.732,0.93-2.893
			c0.128-0.635,0.409-1.234,0.609-1.848c0.389-1.198,0.523-2.457,0.587-3.71c0.026-0.516-0.047-1.106,0.132-1.589
			c0.15-0.405,0.51-0.73,0.645-1.154c0.259-0.81,0.205-1.579,0.198-2.436c-0.016-2.002-0.033-4.004-0.049-6.006
			c-0.008-1.016-0.016-2.037,0.139-3.041c0.064-0.416,0.156-0.835,0.107-1.253C241.916,303.85,241.886,303.722,241.852,303.595z
			 M224.648,323.231c-0.218,0.417-0.446,0.845-0.824,1.123c-1.071,0.785-3.028,0.393-4.173-0.054c-1.302-0.508-2.45-1.38-3.42-2.375
			c-1.22-1.251-2.599-2.93-3.023-4.661c-0.384-1.566-0.289-3.124-0.87-4.642c-0.547-1.427-1.265-2.907-1.039-4.479
			c0.121-0.843,0.509-1.62,0.778-2.428c0.285-0.855,0.375-1.597,0.032-2.459c-0.489-1.23-1.029-2.101-0.805-3.462
			c0.222-1.348,0.83-2.598,1.074-3.941c0.432-2.382-0.29-4.758-0.473-7.125c-0.195-2.524,0.093-5.082-0.096-7.626
			c-0.337-4.528-0.877-9.061-0.668-13.61c0.032-0.705,0.093-1.442,0.465-2.042c0.203-0.327,0.491-0.598,0.662-0.942
			c0.597-1.2-0.205-3.495-0.395-4.765c-0.152-1.015-0.108-2.007-0.242-2.999c-0.127-0.939-0.478-1.835-0.605-2.774
			c-0.211-1.562,0.213-3.142,0.795-4.607c0.685-1.727,1.597-3.364,2.699-4.859c0.979-1.328,2.257-3.122,3.829-3.767
			c1.407-0.577,2.928-0.802,4.418-1.057c0,0,0,0.001,1.01-0.172c1.584-0.271,2.601,0.941,3.243,2.228
			c0.485,0.972,0.8,2.019,1.104,3.058c0.319,1.09,0.13,2.189,0.77,3.214c0.235,0.377,0.538,0.721,0.675,1.144
			c0.184,0.567,0.041,1.181-0.081,1.764c-0.349,1.669-0.523,3.368-0.697,5.064c-0.115,1.124-0.23,2.249-0.284,3.378
			c-0.082,1.717-0.023,3.437,0.092,5.152c0.26,3.894,0.819,7.758,0.261,11.661c-0.155,1.081-0.382,2.214-0.002,3.237
			c0.308,0.83,1.006,1.554,0.977,2.439c-0.011,0.328-0.124,0.643-0.215,0.958c-0.351,1.215-0.331,2.421-0.117,3.656
			c0.144,0.828,0.799,2.606,0.455,3.39c-0.611,1.391-1.474,3.24-0.532,4.679c0.146,0.223,0.327,0.425,0.439,0.668
			c0.14,0.304,0.161,0.647,0.166,0.982c0.023,1.499-0.227,3.001-0.735,4.411c-0.18,0.5-0.393,0.991-0.503,1.511
			c-0.339,1.604,0.335,3.227,0.556,4.852c0.141,1.037,0.009,2.064,0.096,3.085c0.126,1.48,0.866,3.349,0.526,4.797
			c-0.116,0.495-0.396,0.934-0.678,1.357c-1.542,2.313-3.306,4.489-4.599,6.95C224.679,323.171,224.664,323.201,224.648,323.231z"/>
		<path d="M415.846,368.081c-0.11-0.068-0.22-0.135-0.328-0.201c-0.149-0.09-0.306-0.181-0.479-0.195
			c-0.242-0.019-0.468,0.113-0.675,0.24c-1.337,0.823-3.332,1.596-4.166,2.989c-0.793,1.324-0.687,2.781-2.118,3.674
			c-0.63,0.393-1.259,0.786-1.889,1.179c-1.026,0.64-2.066,1.287-3.221,1.648c-3.284,1.025-6.942-1.237-9.315-3.325
			c-0.291-0.374-2.331-2.62-4.379-6.899c-5.572-15.811-11.743-48.237-12.482-51.377c-0.867-4.182-1.967-8.347-2.266-12.621
			c-0.062-0.879-0.089-1.763-0.248-2.629c-0.182-0.993-0.534-1.946-0.85-2.905c-1.131-3.435-1.834-7.007-2.41-10.573
			c-0.536-3.316-0.959-6.673-2.113-9.848c-0.169-0.465-0.335-1.041-0.001-1.406c0.138-0.151,0.336-0.23,0.493-0.36
			c0.235-0.194,0.362-0.488,0.459-0.777c0.402-1.193,0.442-2.479,0.781-3.691c0.34-1.218,1.094-2.463,2.401-2.781
			c0.322-0.079,0.686-0.113,0.909-0.359c0.149-0.164,0.202-0.391,0.25-0.608c0.86-3.903,1.72-7.805,2.58-11.708
			c0.476-2.159,0.773-4.354,0.881-6.563c0.026-0.542,0.027-1.085,0.048-1.627c0.025-0.655,0.104-0.673,0.423-1.205
			c0.486-0.811,0.692-1.746,0.363-2.662c-0.31-0.863-1.036-1.704-0.75-2.576c0.189-0.578,0.776-0.937,1.044-1.483
			c0.183-0.372,0.203-0.801,0.212-1.215c0.136-5.857-1.347-11.531-2.553-17.215c-1.192-5.677-3.839-8.485-7.07-11.229
			c-4.851-4.484-9.689-5.41-15.542-4.94c-2.635,0.212-5.268,0.435-7.901,0.665c-1.975,0.173-4.102,0.016-5.953,0.851
			c-1.467,0.661-3.395,2.049-4.261,3.422c-0.531,0.842-0.738,1.85-0.818,2.842c-0.162,2.009,0.156,4.021,0.252,6.034
			c0.148,3.107-0.235,6.204-0.269,9.309c-0.034,3.097,0.1,6.208,0.118,9.308c0.033,5.671,0.066,11.341,0.099,17.012
			c0.004,0.737,0.009,1.474,0.013,2.212c0.066,11.341,0.131,22.683,0.197,34.024s0.131,22.682,0.197,34.024
			c0.019,3.269-0.521,6.943,1.458,9.78c0.384,0.55,0.85,1.062,1.446,1.369c0.363,0.187,0.762,0.292,1.148,0.427
			c0.909,0.318,1.768,0.812,2.72,0.955c1.512,0.227,3.064-0.498,4.091-1.631c1.026-1.133,1.582-2.625,1.862-4.128
			c0.289-1.557,0.3-3.164,0.041-4.726c-0.259-1.566-1.019-2.971-0.8-4.592c0.132-0.973,0.567-1.877,0.793-2.833
			c0.555-2.344,0.139-5.129-0.047-7.508c-0.209-2.688-0.544-5.365-0.888-8.039c-0.211-1.638-0.491-3.372-0.251-5.021
			c0.245-1.68,0.96-3.275,0.987-4.989c0.019-1.23-0.323-2.441-0.335-3.671c-0.021-2.13,0.492-4.542,1.165-6.545
			c0.522-1.553,1.269-2.365,2.975-2.436c2.68-0.111,3.768,2.171,4.775,4.294c1.407,2.968,2.194,6.231,2.284,9.515
			c0.033,1.183-0.02,2.394,0.339,3.521c0.296,0.929,0.855,1.739,1.227,2.634c0.377,0.906,0.514,1.912,0.715,2.877
			c0.458,2.195,0.9,4.393,1.324,6.595c0.912,4.738,1.668,9.525,2.648,14.23c0.534,2.561,1.143,5.108,1.763,7.649
			c1.857,7.62,7.066,31.218,9.514,38.672c0.561,1.709,1.094,3.466,1.803,5.121c1.088,2.667,2.472,4.957,4.196,7.262
			c0.551,0.737,1.103,1.474,1.694,2.18c2.34,2.794,5.259,5.153,8.68,6.453c3.05,1.151,5.954,1.748,10.016,1.238
			c1.014-0.173,2.03-0.349,2.9-0.526c0.145-0.185,0.145-0.184,0.29-0.183c0.146,0.001,0.146,0.002,0.291,0.003
			c0.617,0.006,1.513-0.607,2.086-0.854c0.774-0.334,1.525-0.687,2.243-1.133c1.383-0.859,2.621-1.954,3.636-3.227
			c0.167-0.21,0.333-0.428,0.554-0.581c0.191-0.132,0.415-0.207,0.629-0.298c1.293-0.549,2.255-1.669,3.024-2.844
			c0.877-1.34,1.727-2.69,2.614-4.023c0.725-1.308,0.432-3.562,0.284-5.815C420.525,371.307,418.005,369.419,415.846,368.081z
			 M351.833,262.95c-0.448-0.3-0.877-0.65-1.302-1.025c-0.949-0.837-2.032-1.819-2.339-3.101c-0.337-1.409-0.094-3.112-0.102-4.558
			c-0.024-4.575,0.537-9.101,0.075-13.674c-0.025-0.251-0.056-0.512-0.191-0.726c-0.105-0.167-0.266-0.292-0.372-0.459
			c-0.282-0.445-0.096-1.023,0.057-1.528c0.59-1.935,0.35-3.747,0.166-5.712c-0.117-1.253-0.152-2.572,0.227-3.787
			c0.404-1.297,1.372-2.408,2.053-3.57c0.068-0.117,0.138-0.235,0.239-0.326c0.136-0.123,0.316-0.183,0.49-0.241
			c1.422-0.476,2.81-1.273,4.242-1.672c1.293-0.36,2.892-0.222,4.152,0.213c2.559,0.884,4.258,3.25,4.935,5.792
			c0.374,1.405,0.508,2.86,0.673,4.304c0.207,1.809,0.464,3.613,0.648,5.425c0.278,2.742,0.385,5.497,0.442,8.251
			c0.054,2.599,0.178,5.177-0.515,7.712c-0.995,3.637-3.479,6.717-6.761,8.542c-1.148,0.638-2.415,1.127-3.728,1.139
			C353.726,263.959,352.739,263.557,351.833,262.95z"/>
		<path d="M442.695,217.343c-0.23-0.619-0.439-1.245-0.605-1.885c-0.468-1.81-0.959-3.306-2.01-4.9
			c-1.498-2.274-3.502-4.235-5.542-6.021c-0.363-0.318-0.737-0.633-1.178-0.829c-1.035-0.459-2.316-0.394-3.414-0.683
			c-1.498-0.394-2.992-0.834-4.506-1.162c-2.488-0.539-5.026-0.923-7.578-0.855c-3.529,0.094-7.219,0.003-10.384,1.822
			c-0.66,0.38-1.184,0.818-1.366,1.592c-0.135,0.573-0.105,1.171-0.168,1.756c-0.17,1.588-1.009,3.025-1.363,4.582
			c-0.466,2.052-0.069,4.153,0.125,6.211c0.203,2.16-0.003,4.334,0.001,6.5c0.005,2.467,0.01,4.934,0.015,7.401
			c0.002,0.984-0.071,1.979-0.032,2.96c0.044,1.093,0.262,2.183,0.1,3.276c-0.136,0.919-0.531,1.78-0.743,2.685
			c-0.263,1.122-0.24,2.309,0.067,3.42c0.153,0.554,0.376,1.089,0.498,1.651c0.13,0.595,0.145,1.209,0.155,1.818
			c0.034,2.067-0.025,4.128-0.026,6.194c-0.001,1.951-0.357,3.913-0.375,5.886c-0.023,2.522,0.157,5.039,0.285,7.556
			c0.066,1.287,0.119,2.574,0.126,3.863c0.006,1.19-0.231,2.352-0.23,3.549c0.001,1.269,0.311,2.232,0.923,3.34
			c0.446,0.807,0.852,1.759,0.536,2.625c-0.2,0.548-0.657,0.959-0.948,1.464c-0.486,0.842-0.477,1.869-0.468,2.841
			c0.043,4.953-0.215,9.889-0.008,14.838c0.288,6.875,0.318,13.749,0.318,20.628c0.004,1.827-0.077,3.678-0.028,5.497
			c0.066,2.42,0.506,4.781,0.326,7.212c-0.03,0.399-0.067,0.815,0.084,1.185c0.108,0.264,0.304,0.482,0.502,0.688
			c0.749,0.782,1.575,1.489,2.462,2.108c0.898,0.627,1.894,1.175,2.982,1.294c0.952,0.104,1.812-0.282,2.744-0.401
			c1.606-0.205,2.921,0.207,4.46,0.467c1.703,0.287,3.433-0.173,5.107-0.444c3.077-0.499,6.135-0.727,8.606-2.843
			c0.396-0.339,0.772-0.714,1.234-0.956c0.598-0.313,1.291-0.377,1.943-0.551c4.107-1.097,6.249-6.444,7.445-10.096
			c1.45-4.429,1.901-9.076,2.548-13.667c0.445-3.156,0.972-6.315,1.039-9.508c0.031-1.463-0.047-2.933-0.237-4.384
			c-0.188-1.435-1.041-2.815-0.911-4.284c0.07-0.795,0.447-1.525,0.696-2.283c0.823-2.509-0.303-5.166-0.282-7.723
			c0.017-2.031,0.658-4.007,0.807-6.032c0.109-1.495-0.051-2.994-0.211-4.484c-0.041-0.378-0.084-0.765-0.254-1.105
			c-0.109-0.217-0.267-0.409-0.347-0.638c-0.241-0.689,0.196-1.67,0.313-2.374c0.155-0.938,0.322-1.865,0.362-2.818
			c0.07-1.641-0.022-3.285,0.001-4.926c0.034-3.283,0.01-6.568,0.022-9.852c0.003-0.756,0.005-1.515-0.113-2.262
			c-0.096-0.604-0.269-1.195-0.338-1.803c-0.113-1.005,0.065-2.016,0.192-3.019c0.459-3.604,0.268-7.249-0.069-10.854
			c-0.323-3.448-0.85-6.823-2.049-10.09C443.545,219.453,443.09,218.408,442.695,217.343z M433.255,288.962
			c0.019,0.198,0.031,0.396,0.033,0.595c0.006,0.715-0.124,1.423-0.228,2.131c-0.689,4.696,0.232,9.321,0.232,14.022
			c0,2.211-0.676,4.706-1.414,6.784c-0.637,1.793-1.728,3.526-3.414,4.408c-1.214,0.636-2.781,0.456-3.894,1.165
			c-0.59,0.377-1.181,0.753-1.771,1.13c-0.183,0.117-0.373,0.236-0.588,0.269c-0.535,0.081-0.983-0.383-1.305-0.818
			c-1.975-2.666-3.173-5.898-3.434-9.205c-0.092-1.159-0.072-2.333-0.318-3.469c-0.122-0.564-0.31-1.119-0.339-1.696
			c-0.053-1.042,0.409-2.005,0.534-3.023c0.131-1.063-0.056-2.177,0.01-3.254c0.146-2.367,1.008-4.798,0.254-7.046
			c-0.243-0.723-0.645-1.389-0.832-2.129c-0.424-1.677,0.195-3.544,0.268-5.239c0.081-1.89,0.234-3.773,0.274-5.666
			c0.061-2.913-0.002-5.84,0.406-8.724c0.112-0.791,0.256-1.619-0.017-2.37c-0.375-1.033-1.507-1.853-1.333-2.938
			c0.071-0.443,0.356-0.815,0.593-1.195c1.23-1.971,0.865-4.092,0.865-6.289c0-1.666,0.307-3.364-0.1-4.979
			c-0.172-0.684-0.473-1.37-0.364-2.067c0.082-0.522,0.389-0.991,0.46-1.515c0.174-1.288-0.95-2.566-1.036-3.889
			c-0.089-1.374,0.328-2.722,0.509-4.072c0.42-3.145,0.365-6.36-0.246-9.477c-0.144-0.735-0.319-1.467-0.391-2.213
			c-0.27-2.799,1.324-7.485,4.732-7.554c1.23-0.025,2.369-0.596,3.662-0.494c1.114,0.088,2.184,0.451,3.094,1.106
			c2.467,1.776,3.113,4.886,3.982,7.609c0.318,0.996,0.637,1.996,0.837,3.023c0.62,3.186,0.298,6.607,0.298,9.837
			c0,0.502,0,1.003,0,1.505c0.001,3.011,0.002,4.706,0.002,7.717c0.001,6.023,0.004,12.045,0.005,18.068
			c0.001,1.694,0.001,4.704,0.002,7.717c0,0.686,0.331,1.417,0.326,2.149c-0.006,0.898-0.109,1.792-0.225,2.681
			c-0.239,1.826-0.578,3.666-0.385,5.513C433.066,287.702,433.194,288.33,433.255,288.962z"/>
		<path d="M514.044,235.855c0.007-1.427,0.391-2.831,0.332-4.288c-0.056-1.388-0.284-2.747-0.544-4.108
			c-0.562-2.94-1.817-5.776-2.001-8.782c-0.03-0.494-0.03-0.997-0.182-1.468c-0.122-0.378-0.338-0.719-0.552-1.054
			c-2.406-3.78-4.961-7.181-8.371-10.132c-2.637-2.282-5.497-4.828-9.239-4.21c-1.371,0.226-2.685,0.822-4.074,0.84
			c-0.945,0.012-1.874-0.245-2.818-0.283c-1.892-0.077-2.738,1.075-3.683,2.516c-1.45,2.21-3.494,3.913-4.96,6.129
			c-1.436,2.171-2.796,4.552-3.805,6.956c-0.723,1.722-1.381,3.483-1.792,5.308c-0.431,1.912-0.094,3.663-0.039,5.587
			c0.059,2.07-0.134,4.147-0.575,6.17c-0.194,0.889-0.437,1.794-0.313,2.696c0.073,0.531,0.271,1.036,0.42,1.551
			c0.708,2.452,0.093,5.128-0.001,7.629c-0.043,1.142,0.05,2.251,0.27,3.371c0.146,0.744,0.885,1.739,0.672,2.489
			c-0.074,0.261-0.259,0.474-0.408,0.701c-0.546,0.835-0.609,1.885-0.656,2.881c-0.134,2.87-0.267,5.739-0.401,8.609
			c-0.126,2.707-0.323,5.458,0.789,8.004c0.072,0.164,0.149,0.344,0.101,0.517c-0.052,0.189-0.234,0.304-0.381,0.434
			c-0.614,0.543-0.684,1.484-0.529,2.289c0.155,0.805,0.488,1.581,0.517,2.4c0.038,1.064-0.44,2.079-0.545,3.138
			c-0.159,1.599,0.527,3.127,0.5,4.718c-0.029,1.748-0.47,3.467-0.406,5.226c0.034,0.935,0.196,1.86,0.296,2.79
			c0.593,5.505-0.512,11.098-0.154,16.635c0.29,4.487,1.286,8.957,3.165,13.053c1.522,3.318,3.645,6.487,6.346,8.963
			c0.788,0.748,1.349,1.606,2.262,2.252c0.961,0.68,2.039,1.18,3.16,1.531c1.454,0.455,3.044,0.682,4.565,0.742
			c1.646,0.065,3.335-0.251,4.941,0.24c0.573,0.175,1.131,0.452,1.73,0.454c1.954,0.004,3.592-2.719,5.121-3.702
			c1.259-0.809,2.571-1.59,3.557-2.74c1.115-1.3,1.713-2.956,2.233-4.588c0.123-0.385,0.246-0.779,0.481-1.109
			c0.26-0.366,0.639-0.627,0.956-0.945c0.805-0.808,1.149-1.92,1.339-3.016c0.196-1.131,0.515-2.081,0.804-3.189
			c0.306-1.172,0.307-2.389,0.429-3.588c0.119-1.169,0.547-2.153,0.826-3.271c0.401-1.608,0.379-3.287,0.354-4.944
			c-0.029-1.925-0.058-3.849-0.087-5.774c-0.012-0.817-0.021-1.656,0.262-2.422c0.094-0.254,0.221-0.51,0.206-0.781
			c-0.018-0.312-0.221-0.577-0.366-0.854c-0.306-0.587-0.1-1.668-0.1-2.333c-0.001-0.85,0.006-1.7,0.016-2.549
			c0.013-1.143,0.004-2.293,0.065-3.435c0.157-2.924,0.671-5.837,0.483-8.773c-0.16-2.486-0.398-4.891-0.417-7.382
			c-0.02-2.674,0.015-5.356,0.234-8.023c0.135-1.637,0.343-3.274,0.294-4.915c-0.065-2.182-0.577-4.322-0.651-6.503
			c-0.075-2.189,0.907-4.396,0.513-6.566c-0.049-0.273-0.124-0.545-0.124-0.822c0-0.238,0.054-0.472,0.102-0.706
			C514.888,242.161,514.028,239.107,514.044,235.855z M496.451,318.278c-0.523,0.846-1.189,1.58-2.24,1.678
			c-2.374,0.223-4.816-2.159-6.153-3.872c-1.104-1.415-2.184-3.086-2.749-4.801c-0.781-2.37-0.366-4.981-1.308-7.283
			c-0.185-0.451-0.422-0.881-0.571-1.346c-0.414-1.29-0.363-2.947-0.028-4.245c0.355-1.377,1.024-2.764,0.777-4.219
			c-0.123-0.723-0.469-1.387-0.679-2.09c-0.936-3.142,1.145-5.8,1.153-8.857c0.004-1.285-0.371-2.654-0.463-3.948
			c-0.098-1.374-0.138-2.751-0.155-4.129c-0.034-2.757,0.036-5.514-0.046-8.271c-0.077-2.613-0.447-5.208-0.545-7.82
			c-0.107-2.861-0.072-5.727,0.104-8.585c0.037-0.606,0.103-1.265,0.522-1.705c0.178-0.187,0.412-0.323,0.555-0.538
			c0.208-0.314,0.177-0.724,0.138-1.099c-0.254-2.461-0.509-4.923-0.763-7.384c-0.237-2.291-0.647-4.358-0.323-6.641
			c0.324-2.281,1.175-4.549,2.47-6.46c1.146-1.691,2.358-3.836,4.257-4.767c1.319-0.646,2.852-0.626,4.32-0.592
			c1.455,0.034,2.868,0.111,3.917,1.252c0.622,0.677,1.018,1.53,1.335,2.393c0.87,2.365,0.683,4.896,1.62,7.218
			c0.216,0.535,0.476,1.055,0.611,1.616c0.248,1.034,0.049,2.116-0.127,3.165c-0.471,2.804-0.775,5.636-0.91,8.475
			c-0.178,3.736-0.063,7.481,0.206,11.211c0.147,2.033,0.393,4.066,0.035,6.086c-0.362,2.045-0.629,4.203,0.029,6.219
			c0.222,0.681,0.549,1.341,0.613,2.055c0.053,0.597-0.081,1.191-0.18,1.782c-0.393,2.33,0.082,4.319,0.312,6.595
			c0.187,1.848-1.371,3.474-0.972,5.341c0.129,0.603,0.467,1.138,0.682,1.715c0.338,0.907,0.366,1.905,0.243,2.865
			c-0.27,2.11-1.243,4.102-1.341,6.227c-0.081,1.758,0.444,3.486,0.579,5.24c0.145,1.874-0.153,3.794,0.307,5.616
			c0.274,1.085,0.517,1.989,0.14,3.082c-0.371,1.074-1.097,1.994-1.76,2.9c-1.075,1.468-2.045,3.012-2.9,4.618
			C496.944,317.392,496.716,317.85,496.451,318.278z"/>
		<path d="M649.008,241.956c0.066-0.785,0.188-1.64-0.328-2.212c-0.407-0.451-1.091-0.556-1.523-0.984
			c-0.587-0.583-0.515-1.526-0.605-2.349c-0.173-1.575-1.055-2.871-1.911-4.151c-0.844-1.263-1.569-2.779-2.575-3.917
			c-5.744-6.5-12.828-9.252-19.962-7.271c-5.825,1.817-9.345,5.643-11.862,11.24c-0.848,1.885-1.852,3.793-2.078,5.878
			c-0.099,0.906-0.054,1.764,0.223,2.633c0.282,0.884,0.773,1.786,0.535,2.741c-0.106,0.426-0.351,0.802-0.536,1.201
			c-0.975,2.103-0.208,4.563-0.338,6.877c-0.099,1.761-0.727,3.472-0.712,5.235c0.01,1.1,0.27,2.183,0.355,3.28
			c0.27,3.477-0.774,6.94-0.838,10.42c-0.047,2.565,0.218,5.071,0.439,7.617c0.202,2.32,0.257,4.66,1.246,6.814
			c0.138,0.301,0.294,0.62,0.242,0.946c-0.042,0.269-0.219,0.494-0.374,0.718c-0.947,1.364-1.054,2.808-0.948,4.405
			c0.123,1.863,0.059,3.752,0.046,5.618c-0.021,3.041-0.042,6.082-0.062,9.123c-0.035,5.071,0.024,10.219,0.817,15.239
			c0.021,0.135,0.043,0.271,0.066,0.406c-0.024,3.056,4.556,11.696,5.993,13.359c0.617,0.904,1.683,1.575,2.509,2.293
			c0.997,0.865,2.024,1.699,3.124,2.432c3.101,2.067,6.731,2.929,10.417,3.089c8.269,0.348,13.255-6.399,16.644-13.297
			c2.363-5.405,2.406-10.928,2.44-15.255c0.085-10.943,0.175-21.887,0.266-32.83c0.007-0.829,0.013-1.664-0.126-2.481
			c-0.334-1.965-1.548-3.764-3.246-4.81c-4.338-2.672-9.437-0.024-14.071-1.097c-0.647-0.15-1.325-0.354-1.962-0.164
			c-0.642,0.191-1.106,0.745-1.464,1.311c-1.222,1.931-1.461,4.114-1.348,6.348c0.111,2.182,0.613,4.517,2.24,5.975
			c0.815,0.73,1.84,1.172,2.758,1.767c2.624,1.702,4.28,4.768,4.353,7.885c0.079,3.37-0.071,6.773-0.098,10.148
			c-0.008,1.051,0.356,2.172,0.391,3.246c0.035,1.057,0.025,2.154-0.115,3.203c-0.292,2.194-0.598,4.536-1.296,6.641
			c-0.718,2.165-2.197,4.256-4.384,4.906c-5.051,1.499-9.816-3.77-10.871-8.185c-0.642-2.689-0.305-5.489-0.283-8.207
			c0.004-0.51-0.387-1.216-0.512-1.726c-0.141-0.574-0.25-1.155-0.323-1.742c-0.147-1.2-0.271-2.424-0.191-3.634
			c0.187-2.825,1.18-5.567,1.028-8.419c-0.056-1.053-0.271-2.091-0.373-3.141c-0.234-2.412,0.37-4.74,0.354-7.117
			c-0.015-2.232-0.406-4.482-1.492-6.455c-0.755-1.372,0.343-1.119,1.173-1.63c1.004-0.618,0.667-2.052,0.604-3.023
			c-0.098-1.509-0.425-3.016-0.462-4.528c-0.035-1.417,0.713-2.77,0.497-4.192c-0.135-0.885-0.655-1.696-0.672-2.591
			c-0.011-0.573,0.186-1.127,0.334-1.681c1.153-4.313-0.669-9.166,1.706-13.196c0.344-0.583,0.767-1.121,1.055-1.734
			c0.372-0.793,0.505-1.689,0.938-2.451c0.76-1.337,2.369-1.959,3.844-2.064c2.46-0.175,4.881,1.046,6.562,2.85
			c2.527,2.712,4.014,6.967,3.985,10.647c-0.009,1.15,0.037,2.27-0.065,3.415c-0.053,0.591-0.004,1.247,0.402,1.68
			c0.277,0.295,0.675,0.437,1.057,0.57c2.259,0.782,4.624,1.576,6.992,1.248c0.77-0.106,1.548-0.345,2.13-0.86
			c1.146-1.013,1.222-2.699,1.195-4.121c-0.024-1.271,0.224-2.512,0.16-3.79c-0.073-1.458-0.346-2.899-0.662-4.321
			c-0.26-1.173-0.551-2.362-0.473-3.561C648.996,242.102,649.002,242.029,649.008,241.956z"/>
		<path d="M713.744,240.212c-0.031-0.232-0.072-0.462-0.128-0.69c-0.398-1.637-1.557-2.746-3.114-3.302
			c-1.338-0.478-2.82-0.455-4.201-0.119c-3.12,0.758-5.313,3.176-5.414,6.433c-0.048,1.54,0.225,3.07,0.311,4.608
			c0.111,1.983-0.089,3.963-0.179,5.942c-0.087,1.91,0.116,3.793,0.106,5.699c-0.014,2.62-0.089,5.235-0.073,7.856
			c0.017,2.821-0.034,5.706-0.988,8.395c-0.346,0.976-0.839,1.95-1.678,2.557c-1.683,1.219-4.276,0.743-6.163,0.344
			c-2.409-0.51-4.442-1.631-5.809-3.738c-1.125-1.733-1.672-3.784-1.932-5.833c-0.066-0.524-0.115-1.058-0.015-1.576
			c0.121-0.626,0.45-1.19,0.648-1.796c0.698-2.139-0.177-4.733-0.298-6.93c-0.137-2.502-0.105-5.009-0.054-7.513
			c0.073-3.575,0.048-7.088,0.227-10.648c0.068-1.346-0.305-2.599-0.297-3.918c0.01-1.491-1.129-3.217-1.984-4.556
			c-0.257-0.403-1.734-0.745-2.196-0.912c-0.685-0.249-1.391-0.473-2.115-0.576c-2.981-0.424-5.536,2.278-6.058,5.052
			c-0.332,1.764,0.064,3.57,0.272,5.353c0.338,2.891,0.181,5.814,0.08,8.724c-0.268,7.723,0.214,15.435-0.088,23.143
			c-0.156,3.991-0.754,7.973-0.514,11.974c0.109,1.819,0.393,3.624,0.457,5.446c0.063,1.795-0.121,3.598-0.124,5.397
			c-0.005,2.718-0.01,5.436-0.015,8.155c-0.004,2.153-0.009,4.312-0.27,6.449c-0.314,2.566-1.002,5.091-1.062,7.687
			c-0.06,2.597,0.318,5.277,1.015,7.776c0.207,0.741,0.446,1.526,0.228,2.264c-0.195,0.659-0.724,1.161-1.047,1.767
			c-0.52,0.974-0.268,1.952-0.234,2.988c0.076,2.366,0.448,4.695,1.076,6.977c0.242,0.88,0.161,1.717,0.585,2.584
			c0.413,0.844,1.032,1.581,1.787,2.138c1.581,1.167,4.006,1.578,5.79,0.649c1.304-0.679,2.161-1.981,2.833-3.289
			c0.659-1.282,1.199-2.661,1.376-4.1c0.185-1.501-0.311-2.81-0.433-4.279c-0.07-0.846,0.062-1.693,0.156-2.537
			c0.331-2.968-0.02-5.964,0.362-8.905c0.285-2.197,0.283-4.427,0.075-6.633c-0.159-1.699-0.44-3.402-0.307-5.103
			c0.108-1.374,0.475-2.722,0.508-4.103c0.034-1.388-0.516-2.665-0.575-4.052c-0.05-1.17,0.163-2.34,0.506-3.46
			c0.406-1.328,1.007-2.616,1.917-3.665c2.352-2.709,6.216-2.647,9.202-1.082c3.061,1.605,4.954,4.737,4.936,8.195
			c-0.006,1.17-0.286,2.323-0.304,3.493c-0.023,1.488,1.137,2.791,0.972,4.276c-0.122,1.1-0.48,2.119-0.582,3.228
			c-0.11,1.195-0.157,2.396-0.163,3.597c-0.028,5.243-0.056,10.486-0.084,15.73c-0.001,0-0.006,1.135-0.014,2.595
			c-0.007,1.243-0.013,2.486-0.02,3.729c-0.012,2.23-0.13,5.004,1.665,6.651c1.973,1.809,5.575,1.759,7.939,0.901
			c0.71-0.258,1.405-0.614,1.91-1.176c1.859-2.068,0.822-5.382,0.463-7.775c-0.612-4.082,0.406-8.129,0.534-12.212
			c0.137-4.393-0.005-8.79,0.159-13.183c0.098-2.594,0.25-5.197,0.006-7.788c-0.199-2.12-0.661-4.219-0.681-6.348
			c-0.019-2.106,0.396-4.179,0.623-6.265c0.236-2.173,0.192-4.381,0.202-6.564c0.036-7.385,0.079-14.771,0.124-22.155
			c0.018-2.977,0.02-5.92-0.047-8.912c-0.072-3.244-0.058-6.494,0.173-9.732C713.786,242.431,713.889,241.306,713.744,240.212z"/>
		<path d="M311.101,294.625c-0.009-1.463-0.018-2.927-0.026-4.228c-0.025-4.066-0.058-9.594-0.075-12.36
			c-0.016-2.603-0.033-5.366-0.056-9.27c-0.022-3.559,0.444-7.377-0.51-10.849c-0.28-1.02-0.696-2.049-0.566-3.099
			c0.102-0.827,0.535-1.572,0.77-2.371c0.567-1.924,0.124-4.135,0.167-6.114c0.046-2.113-0.023-4.239-0.036-6.352
			c-0.008-1.3-0.017-15.561-0.027-17.186c-0.015-2.441,0.352-6.557-1.357-8.519c-1.561-1.792-3.701-3.557-6.221-3.453
			c-1.747,0.072-3.43,1.068-4.587,2.338c-1.234,1.356-1.321,3.199-1.312,4.948c0,9.318-0.019,18.634,0.23,27.943
			c0.025,0.939,0.05,1.878,0.061,2.817c0.064,5.783-0.067,11.571-0.028,17.354c0.036,5.432,0.073,10.863,0.109,16.295
			c0,6.367,0.081,12.736,0.128,19.103c0.011,1.592,0.011,1.591,0.019,2.865c0.026,3.977,0.061,9.241-1.218,13.39
			c0.007,1.112-1.153,1.125-1.155,1.125c-0.952,0.252-1.622,0.553-2.322,1.302c-0.565,0.605-1.02,1.579-1.946,1.666
			c-0.428,0.04-0.841-0.146-1.224-0.341c-1.061-0.541-1.966-1.274-3.097-1.668c-1.419-0.495-2.767-0.729-3.489-2.198
			c-0.347-0.704-0.504-1.484-0.658-2.254c-0.329-1.645-0.658-3.292-0.836-4.96c-0.42-3.943-0.197-7.989-0.227-11.951
			c-0.02-2.683,0.232-5.416,0.578-8.071c0.354-2.717-0.757-5.359-0.664-8.072c0.039-1.151,0.296-2.283,0.435-3.426
			c0.373-3.054-0.254-6.085-0.452-9.126c-0.205-3.146,0.12-6.288,0.215-9.432c0.091-3.036-0.293-6.027-0.347-9.055
			c-0.045-2.565,0.554-5.046,0.715-7.589c0.159-2.516,0.834-5.225,0.384-7.733c-0.167-0.931-0.508-1.821-0.758-2.733
			c-0.563-2.052-0.662-4.193-0.624-6.311c0.036-1.987,0.351-4.161,0.055-6.128c-0.197-1.307-0.82-2.56-1.998-3.242
			c-0.932-0.54-2.068-0.642-3.135-0.489c-1.837,0.264-3.82,1.045-5.163,2.355c-1.492,1.455-1.802,3.446-1.786,5.442
			c0.029,3.808-0.346,7.584-0.135,11.396c-0.408,0.039-0.731,0.389-0.866,0.775s-0.118,0.807-0.1,1.217
			c0.175,3.907,0.351,7.813,0.526,11.72c0.167,3.714,0.416,7.485-0.383,11.149c0.012,1.511,0.012,1.511,0.012,1.511
			c1.189,3.482,1.209,6.064,1.228,8.487c0,0,0.012,1.516,0.02,2.575c-0.715,2.567-0.849,5.147-1.107,7.766
			c-0.171,1.729,0.036,3.423,0.439,5.105c0.308,1.288,1.527,2.631,1.281,3.999c-0.1,0.553-0.444,1.025-0.704,1.523
			c-0.644,1.231-0.781,2.718-0.374,4.046c0.287,0.937,0.838,1.871,0.631,2.828c-0.19,0.878-1.003,1.644-0.809,2.521
			c0.115,0.52,0.562,0.899,0.771,1.389c0.189,0.444,0.17,0.946,0.13,1.427c-0.196,2.375-0.808,4.706-0.861,7.094
			c-0.05,2.285,0.291,4.652,0.945,6.838c1.344,4.488,2.582,10.533,6.805,13.315c0.71,0.468,1.522,0.766,2.221,1.249
			c0.764,0.527,1.365,1.252,2.035,1.895c2.897,2.778,7.253,3.937,11.147,2.967c0.961-0.239,1.887-0.597,2.811-0.954
			c1.786-0.69,3.897-1.212,5.49-2.265c2.089-1.381,3.594-3.482,5.019-5.507c1.532-2.178,2.903-4.463,4.271-6.746
			c0.142-0.237,0.285-0.477,0.364-0.742c0.107-0.361,0.088-0.745,0.08-1.121c-0.043-2.094,0.435-4.132,0.64-6.206
			c0.21-2.121,0.329-4.25,0.405-6.379C311.157,303.453,311.128,299.038,311.101,294.625z"/>
		<path d="M582.902,236.219c-0.176-0.633-0.267-1.227-0.21-2.035c0.098-1.393,0.107-2.806,0.087-4.202
			c-0.034-2.265-0.197-4.567-0.556-6.804c-0.181-1.124-0.467-2.265-1.133-3.188c-0.877-1.216-2.275-1.863-3.674-2.279
			c-1.346-0.4-3.081-0.947-4.47-0.526c-3.021,0.917-2.908,5.643-2.718,8.094c0.188,2.437,0.029,4.957-0.087,7.405
			c-0.027,0.562-0.072,1.163-0.422,1.604c-0.243,0.306-0.616,0.509-0.788,0.86c-0.135,0.276-0.122,0.599-0.104,0.906
			c0.182,3.158,0.438,6.334,0.781,9.479c0.239,2.542,0.626,5.133,0.608,7.691c-1.491,4.925-0.065,8.99-0.095,13.008
			c-0.025,3.386-0.552,6.752-0.684,10.134c-0.057,1.46,0.426,2.913,0.418,4.408c-0.009,1.696-0.237,3.382-0.349,5.072
			c-0.254,3.818,0.097,7.638,0.332,11.448c0.228,3.699-0.001,7.384-0.024,11.09c-0.021,3.089-0.711,6.246-1.561,9.204
			c-0.109,0.38-0.233,0.776-0.516,1.052c-0.188,0.184-0.43,0.3-0.668,0.412c-1.434,0.676-2.799,1.386-4.176,2.155
			c-1.116,0.624-2.619,1.156-3.677,0.137c-0.453-0.436-0.694-1.067-1.182-1.463c-0.595-0.482-1.435-0.521-2.109-0.885
			c-1.118-0.604-1.227-1.738-1.408-2.861c-0.188-1.163-0.416-2.312-0.534-3.488c-0.273-2.71-0.291-5.438-0.27-8.16
			c0.009-1.274,0.009-1.273,0.019-2.865c0.075-11.216,0.098-22.434,0.223-33.648c0.034-3.064,0.068-6.128,0.102-9.192
			c0.026-2.38,0.053-4.764-0.116-7.138c-0.097-1.365-0.259-2.735-0.137-4.098c0.107-1.199,0.444-2.387,0.401-3.597
			c-0.045-1.278-0.075-2.55-0.07-3.835c0.011-2.829,0.02-5.658,0.028-8.487c0.007-2.397,0.004-4.789-0.048-7.183
			c-0.058-2.672,0.371-5.353,0.041-8.019c-0.046-0.37-0.105-0.738-0.182-1.103c-0.619-2.929-4.042-5.002-6.975-4.358
			c-1.43,0.314-2.711,1.13-3.787,2.124c-2.842,2.628-2.437,6.157-2.458,9.707c-0.01,1.625-0.019,15.885-0.027,17.186
			c0,0-0.017,2.765-0.026,4.228c-0.008,1.342-0.051,2.688-0.026,4.029c0.024,1.316-0.259,2.79,0.096,4.072
			c0.198,0.716,0.622,1.356,0.789,2.08c0.322,1.397-0.354,2.802-0.684,4.196c-0.31,1.312-0.315,2.674-0.318,4.022
			c-0.011,5.143-0.031,10.286-0.062,15.428c-0.017,2.766-0.05,8.294-0.075,12.36c-0.008,1.301-0.017,2.765-0.026,4.229
			c-0.027,4.45-0.056,8.902,0.108,13.35c0.078,2.12,0.198,4.24,0.41,6.351c0.136,1.352,0.513,2.67,0.557,4.026
			c0.045,1.383-0.131,2.857,0.513,4.138c0.312,0.621,0.794,1.137,1.216,1.689c1.115,1.458,1.819,3.183,2.78,4.747
			c2.999,4.878,8.647,7.957,14.202,8.929c3.164,0.554,6.632,0.123,9.181-1.832c1.067-0.819,1.845-1.899,2.945-2.688
			c1.155-0.828,2.429-1.486,3.51-2.417c2.982-2.57,4.196-6.703,5.346-10.318c0.993-3.123,1.76-6.395,1.467-9.693
			c-0.236-2.652-1.146-5.353-0.426-7.917c0.212-0.755,0.565-1.518,0.418-2.288c-0.116-0.607-0.532-1.124-0.648-1.731
			c-0.168-0.879,0.315-1.732,0.584-2.585c0.314-0.994,0.327-2.076,0.066-3.084c-0.267-1.033-1.15-1.898-1.135-2.988
			c0.008-0.577,0.285-1.111,0.524-1.636c1.302-2.86,1.439-5.926,1.082-9.005c-0.5-4.322-1.496-8.645-0.699-13.005
			c0.285-1.561,0.844-3.069,0.953-4.661c0.078-1.14-0.077-2.281-0.192-3.418c-0.609-6.055-0.048-12.158,0.317-18.233
			c0.06-0.997,0.111-2.021-0.202-2.969C583.129,236.953,583.002,236.58,582.902,236.219z"/>
	</g>
	<path d="M430.447,370.359c0.969,0.562,2.132,0.805,3.595,0.605c3.056-0.418,6.002-0.545,9.092-0.532
		c7.483,0.031,14.965,0.044,22.447,0.044c2.553,0,5.059,0.402,7.596,0.543c2.792,0.155,5.569-0.289,8.349-0.451
		c4.58-0.267,9.167,0.221,13.755,0.289c4.628,0.069,9.247-0.288,13.87-0.427c2.365-0.071,4.734-0.087,7.097,0.043
		c2.073,0.114,4.076-0.804,6.16-0.539c1.559,0.198,3.119,0.543,4.696,0.543c2.092,0,4.185-0.004,6.277-0.008
		c1.641-0.003,3.46,0.374,4.892-0.697c0.172-0.129,0.348-0.282,0.562-0.296c0.367-0.024,0.613,0.349,0.895,0.584
		c0.491,0.409,1.188,0.429,1.827,0.428c9.753-0.007,19.506-0.011,29.259-0.011c2.879,0,5.936,0,8.815,0
		c5.576,0,10.073,1.365,14.39,0c1.534,0,3.706,0,5.038,0c4.879,0,9.754,1.002,14.633,0.448c5.643-0.64,11.383-0.431,17.078-0.462
		c0.586-0.003,1.175-0.007,1.754-0.101c1.32-0.215,2.479-0.437,3.853-0.387c1.494,0.054,2.98,0.235,4.47,0.349
		c2.089,0.16,4.185,0.192,6.28,0.18c1.725-0.01,3.391,0.242,4.974-0.625c0.281-0.154,0.578-0.339,0.896-0.298
		c0.346,0.044,0.596,0.339,0.885,0.535c0.554,0.375,1.268,0.386,1.937,0.384c5.785-0.017,11.569-0.023,17.354-0.023
		c2.878,0,7.375,0,11.693,0c2.879,0,5.936,0,8.815,0c4.37,0,9.172,1.465,13.442,0.197c1.417-0.421,2.714-1.166,3.971-1.944
		c0.814-0.504,1.642-1.047,2.169-1.846c0.83-1.259,0.574-2.826,0.216-4.199c-0.432-1.656-0.951-3.852-2.204-5.073
		c-1.284-1.252-2.918-1.922-4.681-2.178c-1.933-0.281-3.899-0.116-5.853-0.126c-2.215-0.012-4.474-0.246-6.612,0.335
		c-0.838,0.228-1.668,0.581-2.535,0.533c-1.023-0.057-1.902-0.656-2.895-0.839c-1.072-0.198-2.204-0.028-3.285-0.003
		c-1.961,0.046-3.938-0.287-5.877,0.008c-1.803,0.274-3.519,1.11-5.359,1.147c-1.936,0.039-3.857-0.558-5.758-0.842
		c-3.46-0.518-6.972-0.152-10.401,0.417c-1.608,0.267-3.053,0.555-4.674,0.485c-1.623-0.071-3.227-0.398-4.765-0.917
		c-1.416-0.479-3.057-0.347-4.549-0.347c-2.234,0-4.484,0.702-6.712,0.556c-2.445-0.161-4.647-0.891-7.105-0.171
		c-0.928,0.272-1.83,0.719-2.796,0.715c-1.132-0.005-2.155-0.624-3.222-1.003c-2.805-0.996-6.69-0.655-9.492,0.251
		c-1.047,0.338-2.04,0.842-3.107,1.107c-2.647,0.658-4.855-0.643-7.401-1.055c-1.735-0.28-3.47-0.446-5.23-0.39
		c-4.857,0.154-9.716,0.218-14.575,0.282c-2.669,0.035-5.339,0.071-8.006-0.04c-3.058-0.127-6.118-0.441-9.181-0.289
		c-3.115,0.155-6.007,1.168-9.154,0.976c-2.227-0.136-4.407-0.737-6.635-0.849c-4.837-0.244-9.615,1.84-14.442,0.83
		c-3.407-0.713-6.936-1.427-10.339-0.694c-3.497,0.753-7.222-0.732-10.676,0.199c-0.831,0.224-1.631,0.585-2.486,0.68
		c-0.947,0.104-1.457-0.239-2.182-0.736c-0.789-0.541-1.717-0.679-2.667-0.724c-1.121-0.052-2.24,0.097-3.359,0.18
		c-1.957,0.146-3.954,0.094-5.838,0.642c-1.031,0.3-2.041,0.781-3.114,0.751c-1.098-0.031-2.07-0.586-3.11-0.867
		c-1.113-0.301-2.36-0.348-3.507-0.371c-2.622-0.054-5.228,0.331-7.848,0.354c-1.68,0.014-3.357-0.116-5.034-0.207
		c-2.227-0.121-4.46-0.174-6.689-0.084c-1.132,0.046-2.304,0.076-3.423,0.26c-1.057,0.174-2.07,0.517-3.161,0.468
		c-0.827-0.037-1.628-0.279-2.436-0.454c-3.16-0.684-7.009-0.703-10.191-0.142c-1.325,0.234-2.605,0.673-3.931,0.902
		c-1.3,0.225-2.445,0.068-3.726-0.148c-2.201-0.37-4.315-0.951-6.562-0.895c-2.46,0.061-4.889,0.524-7.299,0.988
		c-2.431,0.468-2.86,2.522-3.105,4.739c-0.209,1.899,0.127,3.848,1.015,5.544C428.169,368.234,429.128,369.594,430.447,370.359z
		 M364.469,355.316c-0.089-0.034-0.19-0.035-0.286-0.035c-2.556,0-5.113,0.002-7.669,0.002c-1.31,0-2.391-0.176-3.697,0.176
		c-1.318,0.356-2.692,0.929-4.078,0.609c-0.612-0.141-1.17-0.453-1.771-0.634c-1.221-0.369-2.495-0.175-3.743-0.113
		c-1.95,0.097-3.958-0.314-5.885-0.038c-1.9,0.272-3.694,1.083-5.623,1.191c-2.548,0.142-4.997-0.981-7.54-1.203
		c-2.503-0.219-4.962,0.435-7.408,0.854c-2.487,0.426-4.998,0.354-7.513,0.354c-3.058-1.195-4.496-1.195-7.374-1.195
		c-2.369,0-4.728,0.693-7.09,0.532c-2.287-0.156-4.671-0.98-6.931-0.216c-0.618,0.209-1.193,0.533-1.815,0.732
		c-1.447,0.464-2.549-0.575-3.821-1.052c-1.73-0.649-3.649-0.112-5.497-0.071c-1.984,0.044-4.071-0.482-5.895,0.302
		c-1.019,0.438-1.949,1.28-3.056,1.2c-1.245-0.09-2.157-1.168-3.396-1.342c-1.58-0.221-3.187-0.086-4.775-0.086
		c-1.563,0-3.117,0.283-4.671,0.413c-1.702,0.143-3.1-0.103-4.781-0.328c-0.656-0.088-1.32-0.089-1.982-0.091
		c-3.584-0.008-7.47-0.493-10.941,0.564c-0.574,0.175-1.152,0.388-1.751,0.375c-0.797-0.016-1.524-0.425-2.28-0.678
		c-1.954-0.654-4.079-0.249-6.088-0.347c-2.342-0.114-4.66,0.365-6.951,0.782c-1.979,0.36-4.085,0.735-6.063,0.218
		c-2.113-0.552-4.267-1.073-6.469-0.954c-2.329,0.126-4.567,0.954-6.886,1.195c-2.22,0.231-4.423,0.073-6.614-0.376
		c-2.891-0.592-5.599-0.959-8.537-0.603c-2.715,0.329-5.335,0.57-8.015-0.172c-1.839,0-3.332,0.243-5.054,0.869
		c-1.195,0.435-2.078,0.261-3.145-0.357c-0.976-0.565-2.065-0.871-3.194-0.876c-1.547-0.007-3.07,0.364-4.618,0.364
		c-1.153,0-2.319-0.136-3.465,0.048c-1.261,0.202-2.28,1.052-3.51,1.336c-1.557,0.36-2.626-0.748-4.066-1.074
		c-1.625-0.368-3.315-0.31-4.969-0.31c-1.57,0-3.055,0.38-4.608,0.463c-1.664,0.089-3.325-0.125-4.979-0.264
		c-0.91-0.077-1.834-0.131-2.729,0.048c-1.813,0.362-3.44,2.104-4.557,3.493c-1.114,1.385-1.618,2.967-1.219,4.735
		c0.318,1.409,1.076,2.675,1.868,3.883c0.518,0.79,1.065,1.575,1.78,2.192c2.083,1.797,5.276,0.802,7.739,0.696
		c4.806-0.207,9.549,0.523,14.348,0.523c3.869-0.08,7.715-0.619,11.586-0.624c4.352-0.006,8.68,0.281,13.014-0.321
		c1.58-0.219,3.191-0.214,4.77,0.016c4.003,0.582,8.065,0.457,12.088,0.177c3.908-0.271,7.675,0.272,11.574,0.331
		c3.573,0.053,7.163-0.154,10.742-0.154c2.878,0,7.375,0,11.693,0c7.074,0,14.205,0.159,21.305,0.154
		c4.903-0.004,9.806,0.098,14.709,0.085c3.019-0.008,6.038-0.06,9.056-0.112c3.242-0.056,6.482-0.126,9.725-0.126
		c1.45,0,2.932-0.084,4.376-0.014c1.678,0.08,3.29-0.464,4.965-0.511c1.838-0.052,3.668,0.181,5.496,0.332
		c2.523,0.208,5.056,0.263,7.587,0.317c1.276,0.027,2.618,0.039,3.74-0.568c0.418-0.226,0.856-0.546,1.32-0.44
		c0.2,0.046,0.373,0.168,0.546,0.277c1.632,1.025,3.194,0.622,4.978,0.617c1.974-0.005,3.947-0.009,5.921-0.009
		c2.699,0,5.758,0,8.635,0c2.878,0,7.375,0,11.693,0c2.879,0,5.936,0,8.815,0c4.63,0,9.187,1.172,13.794,0.186
		c0.215-0.046,0.439-0.1,0.606-0.244c0.164-0.142,0.251-0.351,0.325-0.555c0.346-0.955,0.44-1.928,0.624-2.916
		c0.247-1.328,0.371-2.683,0.326-4.034c-0.088-2.649-0.857-5.273-2.496-7.385c-0.057-0.074-0.118-0.15-0.201-0.194
		C364.496,355.327,364.482,355.321,364.469,355.316z"/>
</g>
</svg>
